<svg width="250" height="250" viewBox="0 0 250 250" fill="none" xmlns="http://www.w3.org/2000/svg">
<path d="M172.794 55.6703C172.794 83.0605 150.59 105.265 123.2 105.265C95.81 105.265 73.6059 83.0605 73.6059 55.6703C73.6059 28.2802 95.81 6.0761 123.2 6.0761C150.59 6.0761 172.794 28.2802 172.794 55.6703ZM122.979 146.752C95.4667 146.752 73.1635 169.056 73.1635 196.568C73.1635 224.08 95.4667 246.383 122.979 246.383C150.491 246.383 172.794 224.08 172.794 196.568C172.794 169.056 150.491 146.752 122.979 146.752Z" fill="#E5E4DF"/>
<path d="M73.6778 46.1566H172.929V196.375H73.6778V46.1566Z" fill="#F4F3EF"/>
<path d="M73.7305 118.016L172.852 164.101V134.786L73.7305 88.7012V118.016Z" fill="#00B1FF"/>
<path d="M172.852 187.815V196.289H128.233L73.7305 171.044V141.731L172.852 187.815V187.815ZM172.852 111.071V81.7563L116.608 55.6641H73.7305V64.9863L172.852 111.071V111.071Z" fill="#FF473E"/>
<path d="M172.93 67.2301H73.6777C67.2573 67.2301 62.0537 62.0269 62.0537 55.606C62.0537 49.1852 67.2568 43.982 73.6777 43.982H172.93C179.349 43.982 184.554 49.1852 184.554 55.606C184.554 62.0269 179.349 67.2301 172.93 67.2301ZM184.553 196.378C184.553 189.959 179.348 184.754 172.929 184.754H73.6777C67.2573 184.754 62.0537 189.959 62.0537 196.378C62.0537 202.796 67.2568 208.002 73.6777 208.002H172.93C179.349 208.001 184.553 202.796 184.553 196.378Z" fill="#BCC4C9"/>
</svg>
